<?xml version="1.0" standalone="no"?>
<!DOCTYPE svg PUBLIC "-//W3C//DTD SVG 20010904//EN"
 "http://www.w3.org/TR/2001/REC-SVG-20010904/DTD/svg10.dtd">
<svg version="1.0" xmlns="http://www.w3.org/2000/svg"
 width="660.000000pt" height="660.000000pt" viewBox="0 0 660.000000 660.000000"
 preserveAspectRatio="xMidYMid meet">
<metadata>
Created by potrace 1.11, written by Peter Selinger 2001-2013
</metadata>
<g transform="translate(0.000000,660.000000) scale(0.100000,-0.100000)"
fill="#000000" stroke="none">
<path d="M0 3300 l0 -3300 3300 0 3300 0 0 3300 0 3300 -3300 0 -3300 0 0
-3300z m1544 2023 c39 -37 296 -289 571 -559 275 -270 526 -514 558 -543 109
-97 231 -163 381 -203 116 -31 327 -32 442 -1 103 28 199 72 285 129 45 30
270 244 676 644 l608 599 375 1 375 0 -150 -148 c-82 -81 -433 -427 -780 -768
-346 -342 -655 -643 -685 -669 -175 -149 -407 -261 -645 -311 -128 -27 -432
-27 -560 0 -174 37 -354 109 -495 201 -109 70 -186 138 -400 348 -113 111
-416 409 -675 662 -258 253 -522 510 -585 572 l-115 113 374 0 374 0 71 -67z
m2001 -2298 c112 -23 269 -77 362 -124 196 -98 264 -156 748 -630 127 -124
334 -327 460 -451 127 -124 339 -332 472 -462 l241 -238 -371 0 -371 0 -136
133 c-781 766 -1043 1021 -1086 1058 -174 148 -431 233 -651 215 -174 -14
-354 -84 -485 -189 -37 -29 -300 -283 -585 -563 -285 -280 -552 -542 -594
-582 l-76 -72 -374 0 -374 0 125 123 c968 949 1473 1440 1523 1481 74 59 203
144 272 179 124 61 332 123 475 141 77 9 348 -3 425 -19z"/>
</g>
</svg>
